<svg width="18.267mm" height="27.779mm" version="1.1" viewBox="0 0 18.267 27.779" xmlns="http://www.w3.org/2000/svg">
 <defs>
  <clipPath id="a">
   <path d="m0 600h800v-600h-800z"/>
  </clipPath>
 </defs>
 <g transform="translate(-127.78 -125.9)">
  <g transform="matrix(.1151 0 0 -.1151 90.84 174.29)" clip-path="url(#a)">
   <g transform="translate(380.31 254.88)">
    <path d="m0 0c6.041-3.494 12.083-6.987 18.133-10.465 1.245-0.716 2.526-0.689 3.771 0.025 2.495 1.43 4.983 2.874 7.474 4.313 3.56 2.055 7.125 4.102 10.678 6.171 1.227 0.716 1.825 1.834 1.829 3.246 0.011 3.47 4e-3 6.941 4e-3 10.411 0 3.488 7e-3 6.975-4e-3 10.462-4e-3 1.425-0.62 2.545-1.855 3.26-6.002 3.476-12.016 6.932-18.02 10.405-1.347 0.778-2.668 0.788-4.014 0.01-5.969-3.45-11.941-6.895-17.914-10.338-1.321-0.761-1.983-1.899-1.983-3.418-3e-3 -6.915-4e-3 -13.831 1e-3 -20.746 1e-3 -1.465 0.625-2.598 1.9-3.336" fill="#fff"/>
   </g>
   <g transform="translate(479.65 388.81)">
    <path d="m0 0c0 2.052 1e-3 4.105 0 6.157 0 1.43-0.171 2.762-0.495 4.006-0.648 2.486-1.954 4.595-3.893 6.341-0.824 0.742-1.744 1.429-2.8 2.038-1.519 0.875-3.036 1.752-4.554 2.628l-5.187 2.994c-4e-3 2e-3 -7e-3 4e-3 -9e-3 6e-3l-11.681 6.74c-2.858 1.65-5.196 0.299-5.196-3.001v-3.048c-1e-3 -0.017-5e-3 -0.033-5e-3 -0.049v-73.706c0-3.3-2.215-4.721-4.922-3.158-7e-3 4e-3 -0.016 8e-3 -0.024 0.012l-9.82 5.668v1e-3c-7.819 4.512-15.641 9.02-23.455 13.539-4.71 2.725-9.336 2.844-14.04 0.313v4e-3l-0.128-0.074c-0.126-0.069-0.252-0.132-0.378-0.204-0.598-0.346-1.197-0.691-1.795-1.037v-0.01l-8.573-4.938c-2.358-1.36-4.287-5.173-4.287-8.473v-27.045c0-3.263 1.887-4.846 4.209-3.566 0.025 0.014 0.049 0.023 0.075 0.038 0 0 2e-3 1e-3 3e-3 1e-3 1e-3 1e-3 2e-3 2e-3 4e-3 3e-3 0.025 0.014 0.057 0.037 0.083 0.053l8.486 4.893v-1e-3c0.523 0.302 1.047 0.604 1.57 0.906 0.665 0.384 1.329 0.767 1.994 1.151v-1e-3 1e-3c0.439 0.253 0.879 0.506 1.318 0.76 2.798 1.618 5.545 1.598 8.345-0.022 12.484-7.219 24.988-14.404 37.466-21.632 2.566-1.487 3.847-3.814 3.856-6.777 0.023-7.25 8e-3 -14.501 8e-3 -21.751 0-7.216 0.016-14.431-8e-3 -21.646-9e-3 -2.936-1.251-5.26-3.803-6.747-7.386-4.303-14.799-8.558-22.201-12.832-5.178-2.99-10.35-5.993-15.538-8.966-2.589-1.484-5.252-1.541-7.84-0.053-10.842 6.234-21.669 12.494-32.496 18.755-1.734 1.002-3.47 2-5.204 3.003-2.651 1.534-3.949 3.89-3.951 6.935-5e-3 6.641-1e-3 13.281-1e-3 19.921h-7e-3v60.981c0 3.3-2.338 4.65-5.196 3l-11.68-6.74c-3e-3 -2e-3 -6e-3 -4e-3 -0.01-6e-3l-5.187-2.994c-1.518-0.875-3.035-1.752-4.553-2.628-4.788-2.759-7.187-6.882-7.189-12.385-3e-3 -5.815 2e-3 -11.63 1e-3 -17.445-6e-3 -19.245-0.012-38.49 2e-3 -57.735 3e-3 -5.307 2.266-9.415 6.887-12.088 9.476-5.48 18.953-10.957 28.431-16.432 12.421-7.174 24.845-14.341 37.279-21.491 4.51-2.593 9.152-2.494 13.665 0.092 9.043 5.183 18.056 10.416 27.082 15.627 12.902 7.45 25.822 14.867 38.695 22.366 4.448 2.591 6.613 6.643 6.63 11.76 0.041 12.576 0.013 25.152 0.013 37.728 0 1.693 2e-3 3.385 3e-3 5.078h6e-3v115.21c0-0.011-5e-3 -0.021-5e-3 -0.032" fill="#fff"/>
   </g>
  </g>
 </g>
</svg>
