<?xml version="1.0" encoding="UTF-8"?>
<svg xmlns="http://www.w3.org/2000/svg" xmlns:xlink="http://www.w3.org/1999/xlink" width="100px" height="152px" viewBox="0 0 100 152" version="1.1">
<g id="surface1">
<path style=" stroke:none;fill-rule:nonzero;fill:rgb(0%,41.960784%,25.098039%);fill-opacity:1;" d="M 37.46875 104.15625 C 41.285156 106.355469 45.097656 108.554688 48.917969 110.742188 C 49.703125 111.191406 50.511719 111.175781 51.296875 110.726562 C 52.875 109.828125 54.445312 108.917969 56.015625 108.011719 C 58.265625 106.71875 60.515625 105.433594 62.757812 104.128906 C 63.53125 103.679688 63.910156 102.976562 63.914062 102.085938 C 63.917969 99.90625 63.914062 97.722656 63.914062 95.539062 C 63.914062 93.34375 63.917969 91.148438 63.914062 88.957031 C 63.910156 88.058594 63.519531 87.355469 62.742188 86.90625 C 58.953125 84.71875 55.15625 82.542969 51.363281 80.359375 C 50.515625 79.867188 49.679688 79.863281 48.832031 80.351562 C 45.0625 82.523438 41.292969 84.691406 37.519531 86.855469 C 36.6875 87.335938 36.269531 88.050781 36.269531 89.007812 C 36.269531 93.355469 36.265625 97.707031 36.269531 102.058594 C 36.269531 102.980469 36.664062 103.695312 37.46875 104.15625 "/>
<path style=" stroke:none;fill-rule:nonzero;fill:rgb(13.333333%,18.823529%,40%);fill-opacity:1;" d="M 100.183594 19.898438 C 100.183594 18.605469 100.183594 17.3125 100.183594 16.023438 C 100.183594 15.125 100.078125 14.285156 99.871094 13.503906 C 99.464844 11.9375 98.636719 10.613281 97.414062 9.511719 C 96.894531 9.046875 96.3125 8.613281 95.648438 8.230469 C 94.6875 7.679688 93.730469 7.128906 92.773438 6.578125 L 89.496094 4.695312 C 89.496094 4.691406 89.492188 4.691406 89.492188 4.691406 L 82.117188 0.449219 C 80.3125 -0.589844 78.835938 0.261719 78.835938 2.335938 L 78.835938 4.253906 C 78.835938 4.265625 78.832031 4.277344 78.832031 4.285156 L 78.832031 50.65625 C 78.832031 52.734375 77.433594 53.628906 75.726562 52.644531 C 75.722656 52.640625 75.714844 52.640625 75.710938 52.636719 L 69.511719 49.070312 C 64.574219 46.230469 59.636719 43.394531 54.703125 40.550781 C 51.730469 38.839844 48.808594 38.761719 45.839844 40.355469 L 45.839844 40.351562 L 45.757812 40.398438 C 45.679688 40.441406 45.601562 40.484375 45.519531 40.527344 C 45.144531 40.746094 44.765625 40.960938 44.386719 41.179688 L 44.386719 41.1875 L 38.976562 44.292969 C 37.488281 45.148438 36.269531 47.546875 36.269531 49.625 L 36.269531 66.640625 C 36.269531 68.691406 37.460938 69.6875 38.925781 68.882812 C 38.941406 68.875 38.957031 68.867188 38.972656 68.859375 C 38.972656 68.859375 38.976562 68.859375 38.976562 68.859375 C 38.976562 68.859375 38.976562 68.855469 38.976562 68.855469 C 38.992188 68.847656 39.015625 68.832031 39.03125 68.824219 L 44.386719 65.746094 C 44.71875 65.554688 45.046875 65.367188 45.378906 65.175781 C 45.796875 64.933594 46.21875 64.691406 46.636719 64.453125 C 46.914062 64.292969 47.191406 64.132812 47.46875 63.972656 C 49.234375 62.957031 50.96875 62.96875 52.738281 63.988281 C 60.621094 68.527344 68.511719 73.050781 76.390625 77.597656 C 78.011719 78.53125 78.820312 79.996094 78.824219 81.859375 C 78.839844 86.421875 78.832031 90.984375 78.832031 95.542969 C 78.832031 100.085938 78.839844 104.625 78.824219 109.164062 C 78.820312 111.011719 78.035156 112.472656 76.425781 113.40625 C 71.761719 116.113281 67.082031 118.792969 62.410156 121.480469 C 59.140625 123.363281 55.875 125.25 52.597656 127.121094 C 50.964844 128.054688 49.285156 128.089844 47.648438 127.15625 C 40.804688 123.234375 33.96875 119.292969 27.132812 115.355469 C 26.039062 114.726562 24.945312 114.097656 23.847656 113.464844 C 22.175781 112.5 21.355469 111.019531 21.355469 109.101562 C 21.351562 104.925781 21.355469 100.746094 21.355469 96.570312 L 21.351562 96.570312 L 21.351562 58.203125 C 21.351562 56.128906 19.875 55.277344 18.070312 56.316406 L 10.695312 60.558594 C 10.695312 60.558594 10.691406 60.558594 10.6875 60.5625 L 7.414062 62.445312 C 6.457031 62.996094 5.5 63.546875 4.539062 64.097656 C 1.515625 65.835938 0.00390625 68.429688 0 71.890625 C 0 75.546875 0.00390625 79.207031 0.00390625 82.867188 C 0 94.972656 -0.00390625 107.082031 0.00390625 119.1875 C 0.00390625 122.527344 1.433594 125.113281 4.351562 126.792969 C 10.332031 130.242188 16.316406 133.6875 22.300781 137.132812 C 30.140625 141.644531 37.984375 146.15625 45.835938 150.652344 C 48.683594 152.285156 51.613281 152.222656 54.460938 150.59375 C 60.171875 147.335938 65.859375 144.042969 71.558594 140.765625 C 79.703125 136.078125 87.863281 131.410156 95.988281 126.691406 C 98.796875 125.0625 100.164062 122.511719 100.175781 119.292969 C 100.199219 111.382812 100.183594 103.46875 100.183594 95.558594 C 100.183594 94.492188 100.183594 93.425781 100.183594 92.363281 L 100.1875 92.363281 L 100.1875 19.878906 C 100.1875 19.886719 100.183594 19.890625 100.183594 19.898438 "/>
</g>
</svg>
